<?xml version="1.0" encoding="UTF-8" standalone="no"?>
<!-- Created with Inkscape (http://www.inkscape.org/) -->

<svg xmlns:dc="http://purl.org/dc/elements/1.1/" xmlns:cc="http://creativecommons.org/ns#" xmlns:rdf="http://www.w3.org/1999/02/22-rdf-syntax-ns#" xmlns:svg="http://www.w3.org/2000/svg" xmlns="http://www.w3.org/2000/svg" xmlns:sodipodi="http://sodipodi.sourceforge.net/DTD/sodipodi-0.dtd" xmlns:inkscape="http://www.inkscape.org/namespaces/inkscape" id="svg2985" version="1.1" inkscape:version="0.48.5 r10040" width="500" height="402.34763" sodipodi:docname="Justice League 2017 Movie Logo.svg">
  <metadata id="metadata2991">
    <rdf:RDF>
      <cc:Work rdf:about="">
        <dc:format>image/svg+xml</dc:format>
        <dc:type rdf:resource="http://purl.org/dc/dcmitype/StillImage" />
        <dc:title></dc:title>
      </cc:Work>
    </rdf:RDF>
  </metadata>
  <defs id="defs2989" />
  <sodipodi:namedview pagecolor="#ffffff" bordercolor="#666666" borderopacity="1" objecttolerance="10" gridtolerance="10" guidetolerance="10" inkscape:pageopacity="0" inkscape:pageshadow="2" inkscape:window-width="1366" inkscape:window-height="706" id="namedview2987" showgrid="false" inkscape:object-paths="true" inkscape:zoom="1.0017346" inkscape:cx="477.35362" inkscape:cy="153.08136" inkscape:window-x="-8" inkscape:window-y="-8" inkscape:window-maximized="1" inkscape:current-layer="svg2985" fit-margin-top="0" fit-margin-left="0" fit-margin-right="0" fit-margin-bottom="0" />
  <g id="g3096" transform="matrix(1.4461314,0,0,1.4461314,-223.51761,-36.243668)">
    <path sodipodi:nodetypes="cccssssscccsssscccccc" inkscape:connector-curvature="0" id="rect2995" d="m 163.40625,25.0625 6.53125,19.375 16.5937,0 c 0.48391,0 0.875,0.391089 0.875,0.875 l 0,95 c 0,0.48391 -0.39109,0.875 -0.875,0.875 l -12.375,0 c -0.48391,0 -0.875,-0.39109 -0.875,-0.875 l 0,-32.28125 -18.71875,12.84375 0,26.3125 0,4.21875 c 0,5.08377 4.08988,9.1875 9.15625,9.1875 l 33.09375,0 c 5.06634,0 9.125,-4.10373 9.125,-9.1875 l 0,-4.21875 0,-112.9375 0,-9.1875 -9.125,0 -33.09375,0 z" style="fill:black;fill-opacity:1;fill-rule:evenodd;stroke:none" />
    <path sodipodi:nodetypes="ssccccccccssssccccccccsss" inkscape:connector-curvature="0" id="path3002" d="m 278,25.0625 c -5.01412,0 -10.46875,5.853735 -10.46875,10.9375 l 0,43.588235 c 0.71342,2.17647 1.93178,4.35478 4.75,6.53125 l 27.1875,20.281255 0,35.13051 -13.04412,0 0,-20.75 -16.08088,-12.4375 -2.8125,0 0,41.46875 c 0,5.08377 5.45463,10.78125 10.46875,10.78125 l 30.0625,0 c 5.01412,0 10.28125,-5.69748 10.28125,-10.78125 l 0,-52.21875 c -0.71342,-2.176471 -1.93178,-4.354779 -4.75,-6.53125 l -27.1875,-20.3125 0,-26.28125 13.78125,0 0,22.59375 2.625,0.1875 15.53125,-12 0,-19.25 c 0,-5.083765 -5.26713,-10.9375 -10.28125,-10.9375 z" style="fill:black;fill-opacity:1;fill-rule:evenodd;stroke:none" />
    <path sodipodi:nodetypes="cccscccsssscc" inkscape:connector-curvature="0" id="path3005" d="m 211.34375,25.0625 0,126.34375 c 0.68605,5.22218 3.32797,8.61889 9,9.1875 l 32.5625,0 c 4.98527,0 8.96875,-4.10373 8.96875,-9.1875 l 0,-126.34375 -17.8125,0 0,115.28125 c 0,0.68148 -0.53727,1.21875 -1.21875,1.21875 l -12,0 c -0.68148,0 -1.25,-0.53727 -1.25,-1.21875 l 0,-115.28125 z" style="fill:black;fill-opacity:1;fill-rule:evenodd;stroke:none" />
    <path inkscape:connector-curvature="0" style="fill:black;fill-opacity:1;fill-rule:evenodd;stroke:none" d="m 389.57905,166.94485 0,9.1875 0,112.9375 0,4.21875 c 0,5.08377 4.40728,9.1875 9.88005,9.1875 l 35.74662,0 c 5.47275,0 9.84575,-4.10373 9.84575,-9.1875 l 0,-4.21875 0,-112.9375 0,-9.1875 -9.84575,0 -9.70853,0 0,115.28125 c 0,0.68148 -0.58981,1.21875 -1.33793,1.21875 l -13.17341,0 c -0.74812,0 -1.37224,-0.53727 -1.37224,-1.21875 l 0,-115.28125 -10.15451,0 -9.88005,0 z" id="path3028" />
    <path id="rect3038" d="m 322.0625,25.40625 0,18.71875 11.75,0 c 0.68147,0 1.21875,0.537276 1.21875,1.21875 l 0,115.25 18.34375,0 0,-115.25 c 0,-0.681474 0.56852,-1.21875 1.25,-1.21875 l 12.4375,0 0,-18.71875 -45,0 z" style="fill:black;fill-opacity:1;fill-rule:evenodd;stroke:none" inkscape:connector-curvature="0" />
    <path id="rect3050" d="m 371.28125,25.28125 0,135.3125 18.71875,0 0,-66.3125 -9.1875,6.3125 4.9375,-13.9375 -12,-8.65625 14.5,0 1.75,-5.71875 0,-47 -18.71875,0 z" style="fill:black;fill-opacity:1;fill-rule:evenodd;stroke:none" inkscape:connector-curvature="0" />
    <path sodipodi:nodetypes="ccccccccccccc" inkscape:connector-curvature="0" id="path3053" d="m 452.15625,25.28125 0,135.3125 48.15625,0 0,-19.5 -29.4375,0 0,-43.90625 20.4375,0 6.52941,-19.5 -26.96691,0 0,-32.90625 29.4375,0 0,-19.5 z" style="fill:black;fill-opacity:1;fill-rule:evenodd;stroke:none" />
    <path style="fill:black;fill-opacity:1;fill-rule:evenodd;stroke:none" d="m 452.15625,167.16361 0,135.3125 48.15625,0 0,-19.5 -29.4375,0 0,-43.90625 20.4375,0 6.88235,-19.5 -27.31985,0 0,-32.90625 29.4375,0 0,-19.5 z" id="path3062" inkscape:connector-curvature="0" sodipodi:nodetypes="ccccccccccccc" />
    <path sodipodi:nodetypes="ccccccccccccc" inkscape:connector-curvature="0" id="path3064" d="m 211.80331,167.16361 0,135.3125 45.41101,0 0,-19.5 -26.69226,0 0,-43.90625 20.4375,0 7.58824,-19.5 -28.02574,0 0,-32.90625 29.4375,0 0,-19.5 z" style="fill:black;fill-opacity:1;fill-rule:evenodd;stroke:none" />
    <path id="path3066" d="m 404.75,25.0625 c -5.67203,0.56861 -8.31395,3.96532 -9,9.1875 l 0,36.75 2.375,7.34375 13.40625,0 -12,8.84375 5.46875,13.75 -9.25,-6.34375 0,56.8125 c 0.68605,5.22218 3.32797,8.61889 9,9.1875 l 32.5625,0 c 4.98527,0 8.96875,-4.10373 8.96875,-9.1875 l 0,-30 -17.8125,-13.9375 0,32.875 c 0,0.68148 -0.53727,1.21875 -1.21875,1.21875 l -12,0 c -0.68148,0 -1.25,-0.53727 -1.25,-1.21875 l 0,-88.8125 0,-6.21875 c 0,-0.68148 0.56852,-1.21875 1.25,-1.21875 l 12,0 c 0.68148,0 1.21875,0.53727 1.21875,1.21875 l 0,6.21875 0,22.75 17.8125,-13.03125 0,-27 c 0,-5.08377 -3.98348,-9.1875 -8.96875,-9.1875 l -32.5625,0 z" style="fill:black;fill-opacity:1;fill-rule:evenodd;stroke:none" inkscape:connector-curvature="0" />
    <path sodipodi:nodetypes="cccccccc" inkscape:connector-curvature="0" id="rect3074" d="m 163.84375,167.28125 0,115.4375 0,19.91728 43.25,0 0,-19.91728 -24,0 0,-115.4375 z" style="fill:black;fill-opacity:1;fill-rule:evenodd;stroke:none" />
    <path sodipodi:nodetypes="ccccccccccccc" inkscape:connector-curvature="0" id="rect3080" d="m 278.50919,167.15625 -17.32169,135.125 18.0625,0 2.5,-20.84375 22.25,0 2.46875,20.84375 18.09375,0 -17.32169,-135.125 z m 14.36581,25.46324 8.75,68.97426 -17.53125,0 z" style="fill:black;fill-opacity:1;fill-rule:evenodd;stroke:none" />
    <path sodipodi:nodetypes="ccccccccccccccccccccc" inkscape:connector-curvature="0" id="path3090" d="m 328.05595,177.25455 c 0.88394,-4.28783 1.52801,-8.6591 9.8579,-10.35704 l 35.6881,0 c 4.21861,1.92496 8.20857,4.18018 9.48355,10.35704 l 0,26.32932 -17.96883,12.72793 0,-29.94806 -19.09189,0 0,96.45769 18.59275,0 0,-36.4368 -11.48008,0 6.36396,-19.59102 23.58409,0 0,75.99319 -12.85271,0 -2.62045,-5.98961 c -3.4916,4.16879 -7.48935,6.313 -11.97922,6.48874 l -17.4697,0 c -7.32552,-0.75544 -9.64501,-5.26539 -10.35703,-10.98095 z" style="fill:black;stroke:none" />
  </g>
</svg>
